<svg xmlns="http://www.w3.org/2000/svg" xmlns:xlink="http://www.w3.org/1999/xlink" xmlns:lucid="lucid" width="2034" height="1376"><g transform="translate(-1579 -937)" lucid:page-tab-id="Z-zZtZN6G4oC"><path d="M0 0h5352.86v2821.66H0z" fill="#fff"/><path d="M2342.66 1791.83c0 34.77-101.63 62.96-227 62.96s-227-28.2-227-62.97v-503.7c0-34.78 101.63-62.97 227-62.97s227 28.2 227 62.96z" stroke="#333" stroke-width="5" fill="#3173d7"/><path d="M2342.66 1288.12c0 34.78-101.63 62.97-227 62.97s-227-28.2-227-62.98" stroke="#333" stroke-width="5" fill="none"/><use xlink:href="#a" transform="matrix(1,0,0,1,1893.6629616862547,1356.084739537548) translate(149.84475778169107 221.79261263870708)"/><use xlink:href="#b" transform="matrix(1,0,0,1,1893.6629616862547,1356.084739537548) translate(102.35600411724494 288.1846565967677)"/><path d="M2490.68 1539.97h-143.02" stroke="#242424" stroke-width="5" fill="none"/><path d="M2507.45 1539.97l-14.27 4.64v-9.26z" stroke="#242424" stroke-width="5" fill="#242424"/><path d="M2347.73 1542.45h-2.57v-4.95h2.57z" stroke="#242424" stroke-width=".05" fill="#242424"/><path d="M2430.14 1198.6a8 8 0 0 1 8-8h705.5a8 8 0 0 1 8 8v839.86a8 8 0 0 1-8 8h-705.5a8 8 0 0 1-8-8z" stroke="#333" fill="#6f9cdc"/><use xlink:href="#c" transform="matrix(1,0,0,1,2461.134645300819,1221.5967027528395) translate(185.99688613726204 44.26136263870708)"/><use xlink:href="#d" transform="matrix(1,0,0,1,2461.134645300819,1221.5967027528395) translate(360.58337210105105 44.26136263870708)"/><path d="M2516.03 1356.97a8 8 0 0 1 8-8h481.9a8 8 0 0 1 8 8v366a8 8 0 0 1-8 8h-481.9a8 8 0 0 1-8-8z" stroke="#333" fill="#fff"/><path d="M2516.03 1412.97h497.9" stroke="#333" fill="none"/><use xlink:href="#e" transform="matrix(1,0,0,1,2524.034726184658,1356.9747039506942) translate(86.66666666666669 32)"/><use xlink:href="#f" transform="matrix(1,0,0,1,2524.034726184658,1356.9747039506942) translate(211.55555555555557 32)"/><use xlink:href="#g" transform="matrix(1,0,0,1,2528.034726184658,1420.9747039506942) translate(10.915362957031086 35.82550424756667)"/><use xlink:href="#h" transform="matrix(1,0,0,1,2528.034726184658,1420.9747039506942) translate(34.02191051542157 35.82550424756667)"/><use xlink:href="#i" transform="matrix(1,0,0,1,2528.034726184658,1420.9747039506942) translate(230.49844374198113 35.82550424756667)"/><use xlink:href="#j" transform="matrix(1,0,0,1,2528.034726184658,1420.9747039506942) translate(333.22571243715686 35.82550424756667)"/><use xlink:href="#k" transform="matrix(1,0,0,1,2528.034726184658,1420.9747039506942) translate(34.02191051542157 76.65179686607254)"/><use xlink:href="#g" transform="matrix(1,0,0,1,2528.034726184658,1420.9747039506942) translate(10.915362957031086 117.47808948457843)"/><use xlink:href="#l" transform="matrix(1,0,0,1,2528.034726184658,1420.9747039506942) translate(34.02191051542157 117.47808948457843)"/><use xlink:href="#m" transform="matrix(1,0,0,1,2528.034726184658,1420.9747039506942) translate(190.80621480732265 117.47808948457843)"/><use xlink:href="#n" transform="matrix(1,0,0,1,2528.034726184658,1420.9747039506942) translate(292.6829357396128 117.47808948457843)"/><use xlink:href="#o" transform="matrix(1,0,0,1,2528.034726184658,1420.9747039506942) translate(392.7640558391446 117.47808948457843)"/><use xlink:href="#p" transform="matrix(1,0,0,1,2528.034726184658,1420.9747039506942) translate(34.02191051542157 158.30438210308432)"/><use xlink:href="#g" transform="matrix(1,0,0,1,2528.034726184658,1420.9747039506942) translate(10.915362957031086 199.1306747215902)"/><use xlink:href="#q" transform="matrix(1,0,0,1,2528.034726184658,1420.9747039506942) translate(34.02191051542157 199.1306747215902)"/><use xlink:href="#r" transform="matrix(1,0,0,1,2528.034726184658,1420.9747039506942) translate(60.388891164873286 199.1306747215902)"/><use xlink:href="#s" transform="matrix(1,0,0,1,2528.034726184658,1420.9747039506942) translate(186.8369919138568 199.1306747215902)"/><use xlink:href="#t" transform="matrix(1,0,0,1,2528.034726184658,1420.9747039506942) translate(216.13363707991425 199.1306747215902)"/><use xlink:href="#u" transform="matrix(1,0,0,1,2528.034726184658,1420.9747039506942) translate(303.5510460431502 199.1306747215902)"/><use xlink:href="#v" transform="matrix(1,0,0,1,2528.034726184658,1420.9747039506942) translate(34.02191051542157 239.95696734009607)"/><use xlink:href="#w" transform="matrix(1,0,0,1,2528.034726184658,1420.9747039506942) translate(109.62615610524728 239.95696734009607)"/><use xlink:href="#x" transform="matrix(1,0,0,1,2528.034726184658,1420.9747039506942) translate(175.77987099634475 239.95696734009607)"/><use xlink:href="#y" transform="matrix(1,0,0,1,2528.034726184658,1420.9747039506942) translate(290.8873349068544 239.95696734009607)"/><use xlink:href="#z" transform="matrix(1,0,0,1,2528.034726184658,1420.9747039506942) translate(388.889338252666 239.95696734009607)"/><use xlink:href="#A" transform="matrix(1,0,0,1,2528.034726184658,1420.9747039506942) translate(426.69146104757885 239.95696734009607)"/><use xlink:href="#B" transform="matrix(1,0,0,1,2528.034726184658,1420.9747039506942) translate(34.02191051542157 280.78325995860195)"/><path d="M2566.47 1924.77a8.32 8.32 0 0 1 8.33-8.32h380.35a8.32 8.32 0 0 1 8.32 8.32v66.57a8.32 8.32 0 0 1-8.32 8.33H2574.8a8.32 8.32 0 0 1-8.33-8.33z" stroke="#333" fill="#a6e4dd"/><g><use xlink:href="#C" transform="matrix(1,0,0,1,2586.475383002824,1916.4484133133217) translate(17.689769630440765 50.165258523701176)"/><use xlink:href="#D" transform="matrix(1,0,0,1,2586.475383002824,1916.4484133133217) translate(210.14037677934206 50.165258523701176)"/></g><path d="M2566.47 1811.57a8.32 8.32 0 0 1 8.32-8.3h380.36a8.32 8.32 0 0 1 8.32 8.3v66.54a8.32 8.32 0 0 1-8.32 8.32H2574.8a8.32 8.32 0 0 1-8.33-8.3z" stroke="#333" fill="#a6e4dd"/><g><use xlink:href="#E" transform="matrix(1,0,0,1,2586.475383002824,1803.2577604712212) translate(56.24793488125184 50.165258523701176)"/><use xlink:href="#F" transform="matrix(1,0,0,1,2586.475383002824,1803.2577604712212) translate(155.81872632305226 50.165258523701176)"/></g><defs><path fill="#fff" d="M175 0L67-191c6 58 2 128 3 191H24v-248h59L193-55c-6-58-2-129-3-193h46V0h-61" id="G"/><path fill="#fff" d="M147 0H94L2-248h55l64 206c17-72 42-137 63-206h54" id="H"/><path fill="#fff" d="M24 0v-248h195v40H76v63h132v40H76v65h150V0H24" id="I"/><path fill="#fff" d="M137-138c1-29-70-34-71-4 15 46 118 7 119 86 1 83-164 76-172 9l43-7c4 19 20 25 44 25 33 8 57-30 24-41C81-84 22-81 20-136c-2-80 154-74 161-7" id="J"/><g id="a"><use transform="matrix(0.15368528693995512,0,0,0.15368528693995512,0,0)" xlink:href="#G"/><use transform="matrix(0.15368528693995512,0,0,0.15368528693995512,39.80448931744838,0)" xlink:href="#H"/><use transform="matrix(0.15368528693995512,0,0,0.15368528693995512,76.68895818303761,0)" xlink:href="#I"/><use transform="matrix(0.15368528693995512,0,0,0.15368528693995512,113.57342704862683,0)" xlink:href="#J"/></g><path fill="#fff" d="M88-194c31-1 46 15 58 34l-1-101h50l1 261h-48c-2-10 0-23-3-31C134-8 116 4 84 4 32 4 16-41 15-95c0-56 19-97 73-99zm17 164c33 0 40-30 41-66 1-37-9-64-41-64s-38 30-39 65c0 43 13 65 39 65" id="K"/><path fill="#fff" d="M133-34C117-15 103 5 69 4 32 3 11-16 11-54c-1-60 55-63 116-61 1-26-3-47-28-47-18 1-26 9-28 27l-52-2c7-38 36-58 82-57s74 22 75 68l1 82c-1 14 12 18 25 15v27c-30 8-71 5-69-32zm-48 3c29 0 43-24 42-57-32 0-66-3-65 30 0 17 8 27 23 27" id="L"/><path fill="#fff" d="M115-3C79 11 28 4 28-45v-112H4v-33h27l15-45h31v45h36v33H77v99c-1 23 16 31 38 25v30" id="M"/><path fill="#fff" d="M135-194c52 0 70 43 70 98 0 56-19 99-73 100-30 1-46-15-58-35L72 0H24l1-261h50v104c11-23 29-37 60-37zM114-30c31 0 40-27 40-66 0-37-7-63-39-63s-41 28-41 65c0 36 8 64 40 64" id="N"/><path fill="#fff" d="M185-48c-13 30-37 53-82 52C43 2 14-33 14-96s30-98 90-98c62 0 83 45 84 108H66c0 31 8 55 39 56 18 0 30-7 34-22zm-45-69c5-46-57-63-70-21-2 6-4 13-4 21h74" id="O"/><g id="b"><use transform="matrix(0.15368528693995512,0,0,0.15368528693995512,0,0)" xlink:href="#K"/><use transform="matrix(0.15368528693995512,0,0,0.15368528693995512,33.65707783985017,0)" xlink:href="#L"/><use transform="matrix(0.15368528693995512,0,0,0.15368528693995512,64.39413522784119,0)" xlink:href="#M"/><use transform="matrix(0.15368528693995512,0,0,0.15368528693995512,82.68268437369585,0)" xlink:href="#L"/><use transform="matrix(0.15368528693995512,0,0,0.15368528693995512,113.41974176168688,0)" xlink:href="#N"/><use transform="matrix(0.15368528693995512,0,0,0.15368528693995512,147.07681960153704,0)" xlink:href="#L"/><use transform="matrix(0.15368528693995512,0,0,0.15368528693995512,177.81387698952807,0)" xlink:href="#J"/><use transform="matrix(0.15368528693995512,0,0,0.15368528693995512,208.5509343775191,0)" xlink:href="#O"/></g><path fill="#fff" d="M76-208v77h127v40H76V0H24v-248h183v40H76" id="P"/><path fill="#fff" d="M240-174c0 40-23 61-54 70L253 0h-59l-57-94H76V0H24v-248c93 4 217-23 216 74zM76-134c48-2 112 12 112-38 0-48-66-32-112-35v73" id="Q"/><path fill="#fff" d="M199 0l-22-63H83L61 0H9l90-248h61L250 0h-51zm-33-102l-36-108c-10 38-24 72-36 108h72" id="R"/><path fill="#fff" d="M230 0l2-204L168 0h-37L68-204 70 0H24v-248h70l56 185 57-185h69V0h-46" id="S"/><g id="c"><use transform="matrix(0.15368528693995512,0,0,0.15368528693995512,0,0)" xlink:href="#P"/><use transform="matrix(0.15368528693995512,0,0,0.15368528693995512,33.65707783985017,0)" xlink:href="#Q"/><use transform="matrix(0.15368528693995512,0,0,0.15368528693995512,73.46156715729855,0)" xlink:href="#R"/><use transform="matrix(0.15368528693995512,0,0,0.15368528693995512,113.26605647474695,0)" xlink:href="#S"/></g><g id="d"><use transform="matrix(0.15368528693995512,0,0,0.15368528693995512,0,0)" xlink:href="#K"/><use transform="matrix(0.15368528693995512,0,0,0.15368528693995512,33.65707783985017,0)" xlink:href="#L"/><use transform="matrix(0.15368528693995512,0,0,0.15368528693995512,64.39413522784119,0)" xlink:href="#M"/><use transform="matrix(0.15368528693995512,0,0,0.15368528693995512,82.68268437369585,0)" xlink:href="#L"/></g><path fill="#242424" d="M175 0L67-191c6 58 2 128 3 191H24v-248h59L193-55c-6-58-2-129-3-193h46V0h-61" id="T"/><path fill="#242424" d="M147 0H94L2-248h55l64 206c17-72 42-137 63-206h54" id="U"/><path fill="#242424" d="M24 0v-248h195v40H76v63h132v40H76v65h150V0H24" id="V"/><path fill="#242424" d="M62-158H24l-5-90h48" id="W"/><path fill="#242424" d="M137-138c1-29-70-34-71-4 15 46 118 7 119 86 1 83-164 76-172 9l43-7c4 19 20 25 44 25 33 8 57-30 24-41C81-84 22-81 20-136c-2-80 154-74 161-7" id="X"/><g id="e"><use transform="matrix(0.1111111111111111,0,0,0.1111111111111111,0,0)" xlink:href="#T"/><use transform="matrix(0.1111111111111111,0,0,0.1111111111111111,28.777777777777775,0)" xlink:href="#U"/><use transform="matrix(0.1111111111111111,0,0,0.1111111111111111,55.44444444444444,0)" xlink:href="#V"/><use transform="matrix(0.1111111111111111,0,0,0.1111111111111111,82.11111111111111,0)" xlink:href="#W"/><use transform="matrix(0.1111111111111111,0,0,0.1111111111111111,91.55555555555556,0)" xlink:href="#X"/></g><path fill="#242424" d="M135-194c53 0 70 44 70 98 0 56-19 98-73 100-31 1-45-17-59-34 3 33 2 69 2 105H25l-1-265h48c2 10 0 23 3 31 11-24 29-35 60-35zM114-30c33 0 39-31 40-66 0-38-9-64-40-64-56 0-55 130 0 130" id="Y"/><path fill="#242424" d="M110-194c64 0 96 36 96 99 0 64-35 99-97 99-61 0-95-36-95-99 0-62 34-99 96-99zm-1 164c35 0 45-28 45-65 0-40-10-65-43-65-34 0-45 26-45 65 0 36 10 65 43 65" id="Z"/><path fill="#242424" d="M85 4C-2 5 27-109 22-190h50c7 57-23 150 33 157 60-5 35-97 40-157h50l1 190h-47c-2-12 1-28-3-38-12 25-28 42-61 42" id="aa"/><path fill="#242424" d="M25 0v-261h50V0H25" id="ab"/><path fill="#242424" d="M133-34C117-15 103 5 69 4 32 3 11-16 11-54c-1-60 55-63 116-61 1-26-3-47-28-47-18 1-26 9-28 27l-52-2c7-38 36-58 82-57s74 22 75 68l1 82c-1 14 12 18 25 15v27c-30 8-71 5-69-32zm-48 3c29 0 43-24 42-57-32 0-66-3-65 30 0 17 8 27 23 27" id="ac"/><path fill="#242424" d="M115-3C79 11 28 4 28-45v-112H4v-33h27l15-45h31v45h36v33H77v99c-1 23 16 31 38 25v30" id="ad"/><path fill="#242424" d="M135-150c-39-12-60 13-60 57V0H25l-1-190h47c2 13-1 29 3 40 6-28 27-53 61-41v41" id="ae"/><g id="f"><use transform="matrix(0.1111111111111111,0,0,0.1111111111111111,0,0)" xlink:href="#Y"/><use transform="matrix(0.1111111111111111,0,0,0.1111111111111111,24.333333333333332,0)" xlink:href="#Z"/><use transform="matrix(0.1111111111111111,0,0,0.1111111111111111,48.666666666666664,0)" xlink:href="#Y"/><use transform="matrix(0.1111111111111111,0,0,0.1111111111111111,73,0)" xlink:href="#aa"/><use transform="matrix(0.1111111111111111,0,0,0.1111111111111111,97.33333333333333,0)" xlink:href="#ab"/><use transform="matrix(0.1111111111111111,0,0,0.1111111111111111,108.44444444444444,0)" xlink:href="#ac"/><use transform="matrix(0.1111111111111111,0,0,0.1111111111111111,130.66666666666666,0)" xlink:href="#ad"/><use transform="matrix(0.1111111111111111,0,0,0.1111111111111111,143.88888888888889,0)" xlink:href="#Z"/><use transform="matrix(0.1111111111111111,0,0,0.1111111111111111,168.22222222222223,0)" xlink:href="#ae"/></g><path fill="#242424" d="M18-113h94v29H18v-29" id="af"/><use transform="matrix(0.09450530698728213,0,0,0.09450530698728213,0,0)" xlink:href="#af" id="g"/><path fill="#242424" d="M84 4C-5 8 30-112 23-190h32v120c0 31 7 50 39 49 72-2 45-101 50-169h31l1 190h-30c-1-10 1-25-2-33-11 22-28 36-60 37" id="ag"/><path fill="#242424" d="M117-194c89-4 53 116 60 194h-32v-121c0-31-8-49-39-48C34-167 62-67 57 0H25l-1-190h30c1 10-1 24 2 32 11-22 29-35 61-36" id="ah"/><path fill="#242424" d="M85-194c31 0 48 13 60 33l-1-100h32l1 261h-30c-2-10 0-23-3-31C134-8 116 4 85 4 32 4 16-35 15-94c0-66 23-100 70-100zm9 24c-40 0-46 34-46 75 0 40 6 74 45 74 42 0 51-32 51-76 0-42-9-74-50-73" id="ai"/><path fill="#242424" d="M100-194c63 0 86 42 84 106H49c0 40 14 67 53 68 26 1 43-12 49-29l28 8c-11 28-37 45-77 45C44 4 14-33 15-96c1-61 26-98 85-98zm52 81c6-60-76-77-97-28-3 7-6 17-6 28h103" id="aj"/><path fill="#242424" d="M114-163C36-179 61-72 57 0H25l-1-190h30c1 12-1 29 2 39 6-27 23-49 58-41v29" id="ak"/><path fill="#242424" d="M135-143c-3-34-86-38-87 0 15 53 115 12 119 90S17 21 10-45l28-5c4 36 97 45 98 0-10-56-113-15-118-90-4-57 82-63 122-42 12 7 21 19 24 35" id="al"/><path fill="#242424" d="M59-47c-2 24 18 29 38 22v24C64 9 27 4 27-40v-127H5v-23h24l9-43h21v43h35v23H59v120" id="am"/><path fill="#242424" d="M141-36C126-15 110 5 73 4 37 3 15-17 15-53c-1-64 63-63 125-63 3-35-9-54-41-54-24 1-41 7-42 31l-33-3c5-37 33-52 76-52 45 0 72 20 72 64v82c-1 20 7 32 28 27v20c-31 9-61-2-59-35zM48-53c0 20 12 33 32 33 41-3 63-29 60-74-43 2-92-5-92 41" id="an"/><g id="h"><use transform="matrix(0.09450530698728213,0,0,0.09450530698728213,0,0)" xlink:href="#ag"/><use transform="matrix(0.09450530698728213,0,0,0.09450530698728213,18.901061397456427,0)" xlink:href="#ah"/><use transform="matrix(0.09450530698728213,0,0,0.09450530698728213,37.802122794912854,0)" xlink:href="#ai"/><use transform="matrix(0.09450530698728213,0,0,0.09450530698728213,56.70318419236928,0)" xlink:href="#aj"/><use transform="matrix(0.09450530698728213,0,0,0.09450530698728213,75.60424558982571,0)" xlink:href="#ak"/><use transform="matrix(0.09450530698728213,0,0,0.09450530698728213,86.85037712131228,0)" xlink:href="#al"/><use transform="matrix(0.09450530698728213,0,0,0.09450530698728213,103.86133237902305,0)" xlink:href="#am"/><use transform="matrix(0.09450530698728213,0,0,0.09450530698728213,113.31186307775127,0)" xlink:href="#an"/><use transform="matrix(0.09450530698728213,0,0,0.09450530698728213,132.2129244752077,0)" xlink:href="#ah"/><use transform="matrix(0.09450530698728213,0,0,0.09450530698728213,151.11398587266413,0)" xlink:href="#ai"/><use transform="matrix(0.09450530698728213,0,0,0.09450530698728213,170.01504727012056,0)" xlink:href="#al"/></g><path fill="#242424" d="M190 0L58-211 59 0H30v-248h39L202-35l-2-213h31V0h-41" id="ao"/><path fill="#242424" d="M137 0h-34L2-248h35l83 218 83-218h36" id="ap"/><path fill="#242424" d="M30 0v-248h187v28H63v79h144v27H63v87h162V0H30" id="aq"/><path fill="#242424" d="M47-170H22l-4-78h33" id="ar"/><g id="i"><use transform="matrix(0.09450530698728213,0,0,0.09450530698728213,0,0)" xlink:href="#ao"/><use transform="matrix(0.09450530698728213,0,0,0.09450530698728213,24.47687450970607,0)" xlink:href="#ap"/><use transform="matrix(0.09450530698728213,0,0,0.09450530698728213,47.15814818665378,0)" xlink:href="#aq"/><use transform="matrix(0.09450530698728213,0,0,0.09450530698728213,69.8394218636015,0)" xlink:href="#ar"/><use transform="matrix(0.09450530698728213,0,0,0.09450530698728213,76.26578273873669,0)" xlink:href="#al"/></g><path fill="#242424" d="M115-194c53 0 69 39 70 98 0 66-23 100-70 100C84 3 66-7 56-30L54 0H23l1-261h32v101c10-23 28-34 59-34zm-8 174c40 0 45-34 45-75 0-40-5-75-45-74-42 0-51 32-51 76 0 43 10 73 51 73" id="as"/><g id="j"><use transform="matrix(0.09450530698728213,0,0,0.09450530698728213,0,0)" xlink:href="#ai"/><use transform="matrix(0.09450530698728213,0,0,0.09450530698728213,18.901061397456427,0)" xlink:href="#an"/><use transform="matrix(0.09450530698728213,0,0,0.09450530698728213,37.802122794912854,0)" xlink:href="#am"/><use transform="matrix(0.09450530698728213,0,0,0.09450530698728213,47.25265349364107,0)" xlink:href="#an"/><use transform="matrix(0.09450530698728213,0,0,0.09450530698728213,66.1537148910975,0)" xlink:href="#as"/><use transform="matrix(0.09450530698728213,0,0,0.09450530698728213,85.05477628855392,0)" xlink:href="#an"/><use transform="matrix(0.09450530698728213,0,0,0.09450530698728213,103.95583768601037,0)" xlink:href="#al"/><use transform="matrix(0.09450530698728213,0,0,0.09450530698728213,120.96679294372115,0)" xlink:href="#aj"/></g><path fill="#242424" d="M101-234c-31-9-42 10-38 44h38v23H63V0H32v-167H5v-23h27c-7-52 17-82 69-68v24" id="at"/><path fill="#242424" d="M100-194c62-1 85 37 85 99 1 63-27 99-86 99S16-35 15-95c0-66 28-99 85-99zM99-20c44 1 53-31 53-75 0-43-8-75-51-75s-53 32-53 75 10 74 51 75" id="au"/><path fill="#242424" d="M210-169c-67 3-38 105-44 169h-31v-121c0-29-5-50-35-48C34-165 62-65 56 0H25l-1-190h30c1 10-1 24 2 32 10-44 99-50 107 0 11-21 27-35 58-36 85-2 47 119 55 194h-31v-121c0-29-5-49-35-48" id="av"/><g id="k"><use transform="matrix(0.09450530698728213,0,0,0.09450530698728213,0,0)" xlink:href="#at"/><use transform="matrix(0.09450530698728213,0,0,0.09450530698728213,9.450530698728214,0)" xlink:href="#au"/><use transform="matrix(0.09450530698728213,0,0,0.09450530698728213,28.35159209618464,0)" xlink:href="#ak"/><use transform="matrix(0.09450530698728213,0,0,0.09450530698728213,39.597723627671215,0)" xlink:href="#av"/><use transform="matrix(0.09450530698728213,0,0,0.09450530698728213,67.85481041686857,0)" xlink:href="#an"/><use transform="matrix(0.09450530698728213,0,0,0.09450530698728213,86.755871814325,0)" xlink:href="#am"/></g><path fill="#242424" d="M115-194c55 1 70 41 70 98S169 2 115 4C84 4 66-9 55-30l1 105H24l-1-265h31l2 30c10-21 28-34 59-34zm-8 174c40 0 45-34 45-75s-6-73-45-74c-42 0-51 32-51 76 0 43 10 73 51 73" id="aw"/><path fill="#242424" d="M24 0v-261h32V0H24" id="ax"/><g id="l"><use transform="matrix(0.09450530698728213,0,0,0.09450530698728213,0,0)" xlink:href="#aw"/><use transform="matrix(0.09450530698728213,0,0,0.09450530698728213,18.901061397456427,0)" xlink:href="#au"/><use transform="matrix(0.09450530698728213,0,0,0.09450530698728213,37.802122794912854,0)" xlink:href="#aw"/><use transform="matrix(0.09450530698728213,0,0,0.09450530698728213,56.70318419236928,0)" xlink:href="#ag"/><use transform="matrix(0.09450530698728213,0,0,0.09450530698728213,75.60424558982571,0)" xlink:href="#ax"/><use transform="matrix(0.09450530698728213,0,0,0.09450530698728213,83.070164841821,0)" xlink:href="#an"/><use transform="matrix(0.09450530698728213,0,0,0.09450530698728213,101.97122623927744,0)" xlink:href="#am"/><use transform="matrix(0.09450530698728213,0,0,0.09450530698728213,111.42175693800566,0)" xlink:href="#aj"/><use transform="matrix(0.09450530698728213,0,0,0.09450530698728213,130.32281833546207,0)" xlink:href="#al"/></g><g id="m"><use transform="matrix(0.09450530698728213,0,0,0.09450530698728213,0,0)" xlink:href="#av"/><use transform="matrix(0.09450530698728213,0,0,0.09450530698728213,28.257086789197356,0)" xlink:href="#au"/><use transform="matrix(0.09450530698728213,0,0,0.09450530698728213,47.15814818665378,0)" xlink:href="#ai"/><use transform="matrix(0.09450530698728213,0,0,0.09450530698728213,66.0592095841102,0)" xlink:href="#aj"/><use transform="matrix(0.09450530698728213,0,0,0.09450530698728213,84.96027098156664,0)" xlink:href="#ax"/></g><path fill="#242424" d="M24-231v-30h32v30H24zM-9 49c24 4 33-6 33-30v-209h32V24c2 40-23 58-65 49V49" id="ay"/><path fill="#242424" d="M96-169c-40 0-48 33-48 73s9 75 48 75c24 0 41-14 43-38l32 2c-6 37-31 61-74 61-59 0-76-41-82-99-10-93 101-131 147-64 4 7 5 14 7 22l-32 3c-4-21-16-35-41-35" id="az"/><g id="n"><use transform="matrix(0.09450530698728213,0,0,0.09450530698728213,0,0)" xlink:href="#au"/><use transform="matrix(0.09450530698728213,0,0,0.09450530698728213,18.901061397456427,0)" xlink:href="#as"/><use transform="matrix(0.09450530698728213,0,0,0.09450530698728213,37.802122794912854,0)" xlink:href="#ay"/><use transform="matrix(0.09450530698728213,0,0,0.09450530698728213,45.26804204690814,0)" xlink:href="#aj"/><use transform="matrix(0.09450530698728213,0,0,0.09450530698728213,64.16910344436457,0)" xlink:href="#az"/><use transform="matrix(0.09450530698728213,0,0,0.09450530698728213,81.18005870207534,0)" xlink:href="#am"/></g><path fill="#242424" d="M206 0h-36l-40-164L89 0H53L-1-190h32L70-26l43-164h34l41 164 42-164h31" id="aA"/><path fill="#242424" d="M24-231v-30h32v30H24zM24 0v-190h32V0H24" id="aB"/><path fill="#242424" d="M106-169C34-169 62-67 57 0H25v-261h32l-1 103c12-21 28-36 61-36 89 0 53 116 60 194h-32v-121c2-32-8-49-39-48" id="aC"/><g id="o"><use transform="matrix(0.09450530698728213,0,0,0.09450530698728213,0,0)" xlink:href="#aA"/><use transform="matrix(0.09450530698728213,0,0,0.09450530698728213,24.47687450970607,0)" xlink:href="#aB"/><use transform="matrix(0.09450530698728213,0,0,0.09450530698728213,31.94279376170136,0)" xlink:href="#am"/><use transform="matrix(0.09450530698728213,0,0,0.09450530698728213,41.393324460429575,0)" xlink:href="#aC"/></g><g id="p"><use transform="matrix(0.09450530698728213,0,0,0.09450530698728213,0,0)" xlink:href="#ai"/><use transform="matrix(0.09450530698728213,0,0,0.09450530698728213,18.901061397456427,0)" xlink:href="#an"/><use transform="matrix(0.09450530698728213,0,0,0.09450530698728213,37.802122794912854,0)" xlink:href="#am"/><use transform="matrix(0.09450530698728213,0,0,0.09450530698728213,47.25265349364107,0)" xlink:href="#an"/></g><g id="q"><use transform="matrix(0.09450530698728213,0,0,0.09450530698728213,0,0)" xlink:href="#aB"/><use transform="matrix(0.09450530698728213,0,0,0.09450530698728213,7.465919251995288,0)" xlink:href="#at"/></g><path fill="#242424" d="M108 0H70L1-190h34L89-25l56-165h34" id="aD"/><g id="r"><use transform="matrix(0.09450530698728213,0,0,0.09450530698728213,0,0)" xlink:href="#aD"/><use transform="matrix(0.09450530698728213,0,0,0.09450530698728213,17.010955257710783,0)" xlink:href="#an"/><use transform="matrix(0.09450530698728213,0,0,0.09450530698728213,35.91201665516721,0)" xlink:href="#ax"/><use transform="matrix(0.09450530698728213,0,0,0.09450530698728213,43.377935907162495,0)" xlink:href="#aB"/><use transform="matrix(0.09450530698728213,0,0,0.09450530698728213,50.84385515915778,0)" xlink:href="#ai"/><use transform="matrix(0.09450530698728213,0,0,0.09450530698728213,69.74491655661421,0)" xlink:href="#an"/><use transform="matrix(0.09450530698728213,0,0,0.09450530698728213,88.64597795407064,0)" xlink:href="#am"/><use transform="matrix(0.09450530698728213,0,0,0.09450530698728213,98.09650865279887,0)" xlink:href="#aj"/></g><path fill="#242424" d="M18-150v-26h174v26H18zm0 90v-26h174v26H18" id="aE"/><use transform="matrix(0.09450530698728213,0,0,0.09450530698728213,0,0)" xlink:href="#aE" id="s"/><path fill="#242424" d="M127-220V0H93v-220H8v-28h204v28h-85" id="aF"/><path fill="#242424" d="M68-38c1 34 0 65-14 84H32c9-13 17-26 17-46H33v-38h35" id="aG"/><g id="t"><use transform="matrix(0.09450530698728213,0,0,0.09450530698728213,0,0)" xlink:href="#aF"/><use transform="matrix(0.09450530698728213,0,0,0.09450530698728213,19.46809323938012,0)" xlink:href="#ak"/><use transform="matrix(0.09450530698728213,0,0,0.09450530698728213,30.714224770866693,0)" xlink:href="#ag"/><use transform="matrix(0.09450530698728213,0,0,0.09450530698728213,49.61528616832313,0)" xlink:href="#aj"/><use transform="matrix(0.09450530698728213,0,0,0.09450530698728213,68.51634756577955,0)" xlink:href="#aG"/></g><g id="u"><use transform="matrix(0.09450530698728213,0,0,0.09450530698728213,0,0)" xlink:href="#aD"/><use transform="matrix(0.09450530698728213,0,0,0.09450530698728213,17.010955257710783,0)" xlink:href="#an"/><use transform="matrix(0.09450530698728213,0,0,0.09450530698728213,35.91201665516721,0)" xlink:href="#ax"/><use transform="matrix(0.09450530698728213,0,0,0.09450530698728213,43.377935907162495,0)" xlink:href="#aB"/><use transform="matrix(0.09450530698728213,0,0,0.09450530698728213,50.84385515915778,0)" xlink:href="#ai"/><use transform="matrix(0.09450530698728213,0,0,0.09450530698728213,69.74491655661421,0)" xlink:href="#an"/><use transform="matrix(0.09450530698728213,0,0,0.09450530698728213,88.64597795407064,0)" xlink:href="#am"/><use transform="matrix(0.09450530698728213,0,0,0.09450530698728213,98.09650865279887,0)" xlink:href="#aj"/><use transform="matrix(0.09450530698728213,0,0,0.09450530698728213,116.99757005025529,0)" xlink:href="#al"/></g><g id="v"><use transform="matrix(0.09450530698728213,0,0,0.09450530698728213,0,0)" xlink:href="#ai"/><use transform="matrix(0.09450530698728213,0,0,0.09450530698728213,18.901061397456427,0)" xlink:href="#an"/><use transform="matrix(0.09450530698728213,0,0,0.09450530698728213,37.802122794912854,0)" xlink:href="#am"/><use transform="matrix(0.09450530698728213,0,0,0.09450530698728213,47.25265349364107,0)" xlink:href="#an"/></g><g id="w"><use transform="matrix(0.09450530698728213,0,0,0.09450530698728213,0,0)" xlink:href="#an"/><use transform="matrix(0.09450530698728213,0,0,0.09450530698728213,18.901061397456427,0)" xlink:href="#ah"/><use transform="matrix(0.09450530698728213,0,0,0.09450530698728213,37.802122794912854,0)" xlink:href="#ai"/></g><g id="x"><use transform="matrix(0.09450530698728213,0,0,0.09450530698728213,0,0)" xlink:href="#ak"/><use transform="matrix(0.09450530698728213,0,0,0.09450530698728213,11.246131531486574,0)" xlink:href="#aj"/><use transform="matrix(0.09450530698728213,0,0,0.09450530698728213,30.147192928943,0)" xlink:href="#aw"/><use transform="matrix(0.09450530698728213,0,0,0.09450530698728213,49.04825432639944,0)" xlink:href="#au"/><use transform="matrix(0.09450530698728213,0,0,0.09450530698728213,67.94931572385586,0)" xlink:href="#ak"/><use transform="matrix(0.09450530698728213,0,0,0.09450530698728213,79.19544725534243,0)" xlink:href="#am"/><use transform="matrix(0.09450530698728213,0,0,0.09450530698728213,88.64597795407064,0)" xlink:href="#al"/></g><g id="y"><use transform="matrix(0.09450530698728213,0,0,0.09450530698728213,0,0)" xlink:href="#aj"/><use transform="matrix(0.09450530698728213,0,0,0.09450530698728213,18.901061397456427,0)" xlink:href="#ak"/><use transform="matrix(0.09450530698728213,0,0,0.09450530698728213,30.147192928943,0)" xlink:href="#ak"/><use transform="matrix(0.09450530698728213,0,0,0.09450530698728213,41.393324460429575,0)" xlink:href="#au"/><use transform="matrix(0.09450530698728213,0,0,0.09450530698728213,60.294385857886,0)" xlink:href="#ak"/><use transform="matrix(0.09450530698728213,0,0,0.09450530698728213,71.54051738937257,0)" xlink:href="#al"/></g><g id="z"><use transform="matrix(0.09450530698728213,0,0,0.09450530698728213,0,0)" xlink:href="#am"/><use transform="matrix(0.09450530698728213,0,0,0.09450530698728213,9.450530698728214,0)" xlink:href="#au"/></g><g id="A"><use transform="matrix(0.09450530698728213,0,0,0.09450530698728213,0,0)" xlink:href="#am"/><use transform="matrix(0.09450530698728213,0,0,0.09450530698728213,9.450530698728214,0)" xlink:href="#aC"/><use transform="matrix(0.09450530698728213,0,0,0.09450530698728213,28.35159209618464,0)" xlink:href="#aj"/></g><g id="B"><use transform="matrix(0.09450530698728213,0,0,0.09450530698728213,0,0)" xlink:href="#ag"/><use transform="matrix(0.09450530698728213,0,0,0.09450530698728213,18.901061397456427,0)" xlink:href="#al"/><use transform="matrix(0.09450530698728213,0,0,0.09450530698728213,35.91201665516721,0)" xlink:href="#aj"/><use transform="matrix(0.09450530698728213,0,0,0.09450530698728213,54.81307805262364,0)" xlink:href="#ak"/></g><path fill="#242424" d="M24-248c120-7 223 5 221 122C244-46 201 0 124 0H24v-248zM76-40c74 7 117-18 117-86 0-67-45-88-117-82v168" id="aH"/><path fill="#242424" d="M135-194c52 0 70 43 70 98 0 56-19 99-73 100-30 1-46-15-58-35L72 0H24l1-261h50v104c11-23 29-37 60-37zM114-30c31 0 40-27 40-66 0-37-7-63-39-63s-41 28-41 65c0 36 8 64 40 64" id="aI"/><path fill="#242424" d="M185-48c-13 30-37 53-82 52C43 2 14-33 14-96s30-98 90-98c62 0 83 45 84 108H66c0 31 8 55 39 56 18 0 30-7 34-22zm-45-69c5-46-57-63-70-21-2 6-4 13-4 21h74" id="aJ"/><g id="C"><use transform="matrix(0.11340636838473854,0,0,0.11340636838473854,0,0)" xlink:href="#aH"/><use transform="matrix(0.11340636838473854,0,0,0.11340636838473854,29.37224941164728,0)" xlink:href="#ac"/><use transform="matrix(0.11340636838473854,0,0,0.11340636838473854,52.053523088594986,0)" xlink:href="#ad"/><use transform="matrix(0.11340636838473854,0,0,0.11340636838473854,65.54888092637887,0)" xlink:href="#ac"/><use transform="matrix(0.11340636838473854,0,0,0.11340636838473854,88.23015460332658,0)" xlink:href="#aI"/><use transform="matrix(0.11340636838473854,0,0,0.11340636838473854,113.06614927958432,0)" xlink:href="#ac"/><use transform="matrix(0.11340636838473854,0,0,0.11340636838473854,135.74742295653203,0)" xlink:href="#X"/><use transform="matrix(0.11340636838473854,0,0,0.11340636838473854,158.42869663347975,0)" xlink:href="#aJ"/></g><path fill="#242424" d="M135-194c87-1 58 113 63 194h-50c-7-57 23-157-34-157-59 0-34 97-39 157H25l-1-190h47c2 12-1 28 3 38 12-26 28-41 61-42" id="aK"/><path fill="#242424" d="M220-157c-53 9-28 100-34 157h-49v-107c1-27-5-49-29-50C55-147 81-57 75 0H25l-1-190h47c2 12-1 28 3 38 10-53 101-56 108 0 13-22 24-43 59-42 82 1 51 116 57 194h-49v-107c-1-25-5-48-29-50" id="aL"/><g id="D"><use transform="matrix(0.11340636838473854,0,0,0.11340636838473854,0,0)" xlink:href="#aK"/><use transform="matrix(0.11340636838473854,0,0,0.11340636838473854,24.83599467625774,0)" xlink:href="#ac"/><use transform="matrix(0.11340636838473854,0,0,0.11340636838473854,47.51726835320545,0)" xlink:href="#aL"/><use transform="matrix(0.11340636838473854,0,0,0.11340636838473854,83.80730623632178,0)" xlink:href="#aJ"/><use transform="matrix(0.11340636838473854,0,0,0.11340636838473854,106.48857991326949,0)" xlink:href="#X"/></g><g id="E"><use transform="matrix(0.11340636838473854,0,0,0.11340636838473854,0,0)" xlink:href="#aH"/><use transform="matrix(0.11340636838473854,0,0,0.11340636838473854,29.37224941164728,0)" xlink:href="#ac"/><use transform="matrix(0.11340636838473854,0,0,0.11340636838473854,52.053523088594986,0)" xlink:href="#ad"/><use transform="matrix(0.11340636838473854,0,0,0.11340636838473854,65.54888092637887,0)" xlink:href="#ac"/></g><path fill="#242424" d="M88-194c31-1 46 15 58 34l-1-101h50l1 261h-48c-2-10 0-23-3-31C134-8 116 4 84 4 32 4 16-41 15-95c0-56 19-97 73-99zm17 164c33 0 40-30 41-66 1-37-9-64-41-64s-38 30-39 65c0 43 13 65 39 65" id="aM"/><g id="F"><use transform="matrix(0.11340636838473854,0,0,0.11340636838473854,0,0)" xlink:href="#ab"/><use transform="matrix(0.11340636838473854,0,0,0.11340636838473854,11.340636838473854,0)" xlink:href="#Z"/><use transform="matrix(0.11340636838473854,0,0,0.11340636838473854,36.176631514731596,0)" xlink:href="#ac"/><use transform="matrix(0.11340636838473854,0,0,0.11340636838473854,58.8579051916793,0)" xlink:href="#aM"/><use transform="matrix(0.11340636838473854,0,0,0.11340636838473854,83.69389986793705,0)" xlink:href="#aJ"/><use transform="matrix(0.11340636838473854,0,0,0.11340636838473854,106.37517354488476,0)" xlink:href="#ae"/><use transform="matrix(0.11340636838473854,0,0,0.11340636838473854,122.25206511874818,0)" xlink:href="#X"/></g></defs></g></svg>